<svg viewBox="0 0 640 400" data-background-color="#ffffff" preserveAspectRatio="xMidYMid meet" height="400" width="640" xmlns="http://www.w3.org/2000/svg" xmlns:xlink="http://www.w3.org/1999/xlink"><rect width="640" height="400" x="0" y="0" opacity="1" fill="#ffffff" data-fill-palette-color="background" id="background"></rect><g id="tight-bounds" transform="matrix(1,0,0,1,122.24000000000001,146.0251890480618)"><svg viewBox="0 0 395.52 107.94962190387642" height="107.94962190387642" width="395.52"><g><svg viewBox="0 0 581.2653715348463 158.6452697284661" height="107.94962190387642" width="395.52"><g transform="matrix(1,0,0,1,0,21.92564871066356)"><svg viewBox="0 0 395.52 114.79397230713899" height="114.79397230713899" width="395.52"><g id="textblocktransform"><svg viewBox="0 0 395.52 114.79397230713899" height="114.79397230713899" width="395.52" id="textblock"><g><svg viewBox="0 0 395.52 114.79397230713899" height="114.79397230713899" width="395.52"><g transform="matrix(1,0,0,1,0,0)"><svg width="395.52" viewBox="1.2000000476837158 -40 139.010009765625 40.349998474121094" height="114.79397230713899" data-palette-color="#0c0a0f"><g class="wordmark-text-0" data-fill-palette-color="primary" id="text-0"><path d="M21.45 0L15.68 0 14.63-11.5 13.48-27.25 12.58-27.25 11.4-11.5 10.7-4.45 8.03-4.45 8.75-14.88 10.23-29.85 15.83-29.85 17.28-14.88 18.15-2.6 21.78-2.6 21.45 0ZM10.25 0L4.48 0 1.2-30 4.55-30 6-14.88 6.88-2.6 10.5-2.6 10.25 0ZM22.05-4.45L19.33-4.45 20.08-14.88 21.5-30 24.85-30 22.05-4.45ZM32.1 0L28.77 0 28.77-40 32.1-40 32.1 0ZM41.95 0L38.65 0 38.65-24.63Q38.65-26.3 38.02-27.03 37.4-27.75 36.05-27.75L36.05-27.75Q35.02-27.75 34.27-27.38L34.27-27.38 34.27-29.33Q34.82-29.83 35.51-30.09 36.2-30.35 37.22-30.35L37.22-30.35Q39.57-30.35 40.76-28.98 41.95-27.6 41.95-24.4L41.95-24.4 41.95 0ZM46.9-5.75L46.9-5.75Q46.84-7.78 46.82-10.13 46.8-12.48 46.8-14.94 46.8-17.4 46.82-19.78 46.84-22.15 46.9-24.2L46.9-24.2Q47.05-27.2 48.3-28.64 49.55-30.08 52.22-30.28L52.22-30.28 52.22-27.6Q51.2-27.38 50.72-26.66 50.25-25.95 50.22-24.63L50.22-24.63Q50.17-21.95 50.15-19.61 50.12-17.28 50.12-15.05 50.12-12.83 50.15-10.49 50.17-8.15 50.22-5.45L50.22-5.45Q50.25-3.98 50.71-3.29 51.17-2.6 52.22-2.4L52.22-2.4 52.22 0.3Q49.47 0.08 48.25-1.35 47.02-2.78 46.9-5.75ZM54.42 0.3L54.42 0.3 54.42-2.4Q55.4-2.6 55.84-3.3 56.3-4 56.37-5.45L56.37-5.45Q56.42-6.4 56.41-7.6 56.4-8.8 56.32-10.3L56.32-10.3 59.57-10.3Q59.65-9.18 59.66-7.95 59.67-6.73 59.62-5.75L59.62-5.75Q59.47-2.78 58.3-1.34 57.12 0.1 54.42 0.3ZM59.57-14.3L51.97-14.3 51.97-16.78 56.37-16.78Q56.42-18.53 56.42-20.08 56.42-21.63 56.41-22.79 56.4-23.95 56.37-24.63L56.37-24.63Q56.27-25.95 55.82-26.66 55.37-27.38 54.42-27.6L54.42-27.6 54.42-30.3Q57.07-30.08 58.27-28.68 59.47-27.28 59.62-24.3L59.62-24.3Q59.65-23.55 59.67-22.05 59.7-20.55 59.68-18.57 59.67-16.6 59.57-14.3L59.57-14.3ZM64.02-5.75L64.02-5.75Q63.97-7.78 63.94-10.13 63.92-12.48 63.92-14.94 63.92-17.4 63.94-19.78 63.97-22.15 64.02-24.2L64.02-24.2Q64.17-27.2 65.42-28.64 66.67-30.08 69.34-30.28L69.34-30.28 69.34-27.6Q68.32-27.38 67.84-26.66 67.37-25.95 67.34-24.63L67.34-24.63Q67.29-21.95 67.27-19.61 67.24-17.28 67.24-15.05 67.24-12.83 67.27-10.49 67.29-8.15 67.34-5.45L67.34-5.45Q67.37-3.98 67.83-3.29 68.29-2.6 69.34-2.4L69.34-2.4 69.34 0.3Q66.59 0.08 65.37-1.35 64.14-2.78 64.02-5.75ZM71.54 0.3L71.54 0.3 71.54-2.4Q72.52-2.6 72.97-3.3 73.42-4 73.49-5.45L73.49-5.45Q73.54-6.4 73.53-7.6 73.52-8.8 73.44-10.3L73.44-10.3 76.69-10.3Q76.77-9.18 76.78-7.95 76.79-6.73 76.74-5.75L76.74-5.75Q76.59-2.78 75.42-1.34 74.24 0.1 71.54 0.3ZM76.69-14.3L69.09-14.3 69.09-16.78 73.49-16.78Q73.54-18.53 73.54-20.08 73.54-21.63 73.53-22.79 73.52-23.95 73.49-24.63L73.49-24.63Q73.39-25.95 72.94-26.66 72.49-27.38 71.54-27.6L71.54-27.6 71.54-30.3Q74.19-30.08 75.39-28.68 76.59-27.28 76.74-24.3L76.74-24.3Q76.77-23.55 76.79-22.05 76.82-20.55 76.81-18.57 76.79-16.6 76.69-14.3L76.69-14.3ZM84.84 0L81.52 0 81.52-40 84.84-40 84.84 0ZM93.64 0L90.31 0 90.31-40 93.64-40 93.64 0ZM103.49 0L100.19 0 100.19-24.63Q100.19-26.3 99.56-27.03 98.94-27.75 97.59-27.75L97.59-27.75Q96.56-27.75 95.81-27.38L95.81-27.38 95.81-29.33Q96.36-29.83 97.05-30.09 97.74-30.35 98.76-30.35L98.76-30.35Q101.11-30.35 102.3-28.98 103.49-27.6 103.49-24.4L103.49-24.4 103.49 0ZM108.36-5.6L108.36-5.6 108.36-30 111.69-30 111.69-5.38Q111.69-3.73 112.3-2.99 112.91-2.25 114.24-2.25L114.24-2.25Q115.14-2.25 116.01-2.68L116.01-2.68 116.01-0.63Q114.84 0.35 113.19 0.35L113.19 0.35Q110.84 0.35 109.6-1.05 108.36-2.45 108.36-5.6ZM121.51 0L118.19 0 118.19-30 121.51-30 121.51 0ZM130.28 0L126.96 0 126.96-40 130.28-40 130.28 0ZM132.46-0.48L132.46-0.48 132.46-2.6Q132.86-2.43 133.3-2.34 133.73-2.25 134.23-2.25L134.23-2.25Q135.58-2.25 136.17-2.99 136.76-3.73 136.78-5.38L136.78-5.38Q136.86-7.6 136.9-9.93 136.93-12.25 136.93-14.65 136.93-17.05 136.9-19.55 136.86-22.05 136.78-24.63L136.78-24.63Q136.76-26.3 136.17-27.03 135.58-27.75 134.23-27.75L134.23-27.75Q133.26-27.75 132.46-27.4L132.46-27.4 132.46-29.35Q133.01-29.85 133.7-30.1 134.38-30.35 135.41-30.35L135.41-30.35Q137.76-30.35 138.88-28.98 140.01-27.6 140.11-24.4L140.11-24.4Q140.16-22.03 140.18-19.6 140.21-17.18 140.21-14.78 140.21-12.38 140.18-10.06 140.16-7.75 140.11-5.6L140.11-5.6Q140.01-2.45 138.8-1.05 137.58 0.35 135.21 0.35L135.21 0.35Q134.31 0.35 133.65 0.14 132.98-0.08 132.46-0.48Z" fill="#0c0a0f" data-fill-palette-color="primary"></path></g></svg></g></svg></g></svg></g></svg></g><g transform="matrix(1,0,0,1,422.62010180638015,0)"><svg viewBox="0 0 158.6452697284661 158.6452697284661" height="158.6452697284661" width="158.6452697284661"><g><svg xmlns="http://www.w3.org/2000/svg" xmlns:xlink="http://www.w3.org/1999/xlink" version="1.1" x="0" y="0" viewBox="0 0 98 98" enable-background="new 0 0 98 98" xml:space="preserve" height="158.6452697284661" width="158.6452697284661" class="icon-icon-0" data-fill-palette-color="accent" id="icon-0"><g fill="#d30000" data-fill-palette-color="accent"><g fill="#d30000" data-fill-palette-color="accent"><path d="M49 98C21.981 98 0 76.019 0 49.001 0 21.981 21.981 0 49 0S98 21.981 98 49.001C98 76.019 76.019 98 49 98M49 3.308C23.806 3.308 3.308 23.805 3.308 49 3.308 74.194 23.805 94.691 49 94.691S94.692 74.194 94.692 49 74.194 3.308 49 3.308" fill="#d30000" data-fill-palette-color="accent"></path></g><g fill="#d30000" data-fill-palette-color="accent"><path d="M49 55.808A6.815 6.815 0 0 1 42.193 49C42.193 45.247 45.247 42.192 49 42.192S55.807 45.246 55.807 49A6.815 6.815 0 0 1 49 55.808M49 44.399A4.61 4.61 0 0 0 44.398 49.001C44.398 51.538 46.462 53.603 49 53.603S53.602 51.538 53.602 49.001A4.607 4.607 0 0 0 49 44.399" fill="#d30000" data-fill-palette-color="accent"></path></g><g fill="#d30000" data-fill-palette-color="accent"><path d="M35.736 37.515C35.499 37.515 35.255 37.51 35.002 37.497 28.809 37.19 18.47 35.24 18.033 35.157 17.707 35.089 15.092 34.482 14.29 32.19 13.714 30.544 14.28 28.675 15.971 26.632 25.498 15.125 38.291 9.704 38.831 9.479A7 7 0 0 1 41.228 9.025C42.471 9.025 43.548 9.431 44.341 10.199 45.316 11.142 45.809 12.562 45.808 14.416 45.815 14.861 45.963 25.935 43.38 32.58 43.013 34.409 41.031 37.515 35.736 37.515M41.228 12.333C40.631 12.333 40.08 12.543 40.074 12.545 39.98 12.585 27.508 17.885 18.519 28.742 17.518 29.95 17.291 30.751 17.412 31.096 17.558 31.514 18.378 31.849 18.679 31.911 18.754 31.925 29.201 33.896 35.165 34.192 39.69 34.432 40.137 31.93 40.14 31.907L40.243 31.516C42.649 25.502 42.501 14.551 42.499 14.442 42.499 13.53 42.332 12.86 42.039 12.577 41.874 12.414 41.601 12.333 41.228 12.333" fill="#d30000" data-fill-palette-color="accent"></path></g><g fill="#d30000" data-fill-palette-color="accent"><path d="M22.339 75.781C20.577 75.781 18.998 74.609 17.644 72.298 10.091 59.413 9.371 45.537 9.345 44.953 9.335 44.674 9.302 42.365 10.775 40.842 12.055 39.516 14.017 39.223 16.371 40.083 16.792 40.228 27.247 43.878 32.609 48.575 34.307 49.607 36.629 52.75 34.363 58.132 31.958 63.846 26.589 72.895 26.361 73.278 26.187 73.558 24.739 75.781 22.339 75.781M13.872 42.898C13.444 42.898 13.264 43.028 13.154 43.141 12.742 43.567 12.641 44.522 12.651 44.82 12.656 44.934 13.372 58.466 20.499 70.624 21.297 71.985 21.973 72.471 22.34 72.471 22.768 72.471 23.334 71.869 23.541 71.547 23.572 71.494 28.998 62.351 31.314 56.847 33.017 52.804 31.065 51.506 30.837 51.372L30.538 51.159C25.714 46.85 15.368 43.236 15.264 43.199 14.705 42.997 14.245 42.898 13.872 42.898" fill="#d30000" data-fill-palette-color="accent"></path></g><g fill="#d30000" data-fill-palette-color="accent"><path d="M50.637 87.756C40.502 87.756 32.829 85.393 32.507 85.293 32.19 85.19 29.561 84.269 28.879 81.882 28.437 80.334 28.927 78.701 30.334 77.026 30.614 76.68 37.634 68.086 43.887 64.659 44.353 64.304 45.591 63.516 47.418 63.516 49.434 63.516 51.463 64.45 53.447 66.29 57.994 70.506 64.662 78.646 64.944 78.991 65.15 79.253 66.762 81.399 65.903 83.669 65.286 85.3 63.651 86.369 61.042 86.846 57.746 87.45 54.245 87.756 50.637 87.756M47.418 66.825C46.481 66.825 45.923 67.263 45.918 67.268L45.588 67.501C39.888 70.561 32.953 79.048 32.884 79.135 32.238 79.904 31.943 80.567 32.06 80.974 32.225 81.551 33.197 82.039 33.513 82.143 33.567 82.159 41.032 84.449 50.636 84.449 54.045 84.449 57.345 84.161 60.446 83.594 61.99 83.312 62.679 82.844 62.808 82.501 62.964 82.087 62.552 81.304 62.362 81.063 62.314 81.005 55.576 72.779 51.197 68.718 49.864 67.478 48.557 66.825 47.418 66.825" fill="#d30000" data-fill-palette-color="accent"></path></g><g fill="#d30000" data-fill-palette-color="accent"><path d="M74.673 78.203C73.488 78.203 71.771 77.676 70.324 75.165 70.095 74.784 64.432 65.269 63.343 58.222 62.704 56.341 62.946 52.44 68.141 49.774 73.658 46.943 83.588 43.461 84.008 43.314A6.2 6.2 0 0 1 85.86 43.03C87.237 43.03 88.377 43.518 89.157 44.442 90.144 45.609 90.446 47.368 90.056 49.669 87.558 64.397 79.191 75.486 78.835 75.952 78.644 76.196 77.004 78.203 74.673 78.203M85.86 46.338C85.429 46.338 85.061 46.45 85.057 46.451 84.999 46.473 74.965 49.991 69.651 52.718 65.749 54.719 66.41 56.968 66.498 57.218L66.591 57.572C67.516 63.977 73.12 73.394 73.176 73.489 73.488 74.029 74.076 74.894 74.673 74.894 75.245 74.894 75.979 74.223 76.226 73.917 76.287 73.836 84.437 63.01 86.794 49.114 87.101 47.303 86.746 46.713 86.63 46.576 86.496 46.419 86.237 46.338 85.86 46.338" fill="#d30000" data-fill-palette-color="accent"></path></g><g fill="#d30000" data-fill-palette-color="accent"><path d="M68.203 39.654C65.979 39.654 64.038 39.49 62.431 39.167 60.269 39.038 56.887 37.373 56.186 31.779 55.411 25.626 55.537 15.103 55.542 14.658 55.602 12.751 56.788 9.957 59.812 9.957 60.937 9.957 62.17 10.347 63.581 11.149 76.564 18.532 84.125 30.189 84.441 30.682 84.617 30.964 86.04 33.359 85.027 35.626 84.371 37.095 82.946 38.032 80.791 38.411 80.556 38.458 74.286 39.654 68.203 39.654M59.813 13.266C58.907 13.266 58.851 14.718 58.85 14.732 58.849 14.808 58.723 25.442 59.469 31.367 60.015 35.718 62.354 35.867 62.619 35.869L62.984 35.903C64.393 36.197 66.149 36.346 68.203 36.346 73.961 36.346 80.131 35.171 80.193 35.159 81.179 34.986 81.83 34.668 82.005 34.283 82.245 33.756 81.854 32.797 81.639 32.439 81.583 32.353 74.197 20.992 61.947 14.025 60.785 13.365 60.111 13.266 59.813 13.266" fill="#d30000" data-fill-palette-color="accent"></path></g></g></svg></g></svg></g></svg></g><defs></defs></svg><rect width="395.52" height="107.94962190387642" fill="none" stroke="none" visibility="hidden"></rect></g></svg>